<?xml version="1.0" encoding="utf-8"?>
<svg viewBox="6.4094 4.9795 44.3764 44.53" xmlns="http://www.w3.org/2000/svg">
  <defs>
    <style>      .cls-1 {        fill: #0a2f2a;      }      .cls-2 {        fill: #4ca15d;      }    </style>
  </defs>
  <path class="cls-2" d="M43.31,23.35l-11.16,.63c-5.08,.26-7.98,3.23-8.25,8.3l-.63,11.16c-.05,1.11,1,1.48,1.85,.58l18.77-18.82c.85-.9,.53-1.9-.58-1.85Z" transform="matrix(0.9999999999999999, 0, 0, 0.9999999999999999, 6.4126319885253835, 4.984514236450188)"/>
  <path class="cls-2" d="M25.12,.5c-.85-.9-1.9-.53-1.85,.58l.63,11.16c.26,5.08,3.17,8.04,8.25,8.3l11.16,.63c1.11,.05,1.43-.95,.58-1.85L25.12,.5Z" transform="matrix(0.9999999999999999, 0, 0, 0.9999999999999999, 6.4126319885253835, 4.984514236450188)"/>
  <g transform="matrix(0.9999999999999999, 0, 0, 0.9999999999999999, 6.4126319885253835, 4.984514236450188)">
    <path class="cls-2" d="M20.47,32.28c-.26-5.08-3.17-8.04-8.25-8.3l-11.16-.63c-1.11-.05-1.43,1-.58,1.85l18.77,18.82c.85,.9,1.9,.53,1.85-.58l-.63-11.16Z"/>
    <path class="cls-2" d="M19.25,.5L.48,19.33c-.85,.85-.53,1.9,.58,1.85l11.16-.63c5.08-.26,7.98-3.23,8.25-8.3l.63-11.16c.05-1.11-1-1.48-1.85-.58Z"/>
  </g>
</svg>